<?xml version="1.0" encoding="utf-8"?>
<!-- Generator: Adobe Illustrator 16.0.0, SVG Export Plug-In . SVG Version: 6.00 Build 0)  -->
<!DOCTYPE svg PUBLIC "-//W3C//DTD SVG 1.1//EN" "http://www.w3.org/Graphics/SVG/1.1/DTD/svg11.dtd">
<svg version="1.1" id="Layer_1" xmlns="http://www.w3.org/2000/svg" xmlns:xlink="http://www.w3.org/1999/xlink" x="0px" y="0px"
	 viewBox="0 0 7 10.827" enable-background="new 0 0 7 10.827" xml:space="preserve">
<g>
	<defs>
		<rect id="SVGID_1_" width="7" height="10.827"/>
	</defs>
	<clipPath id="SVGID_2_">
		<use xlink:href="#SVGID_1_"  overflow="visible"/>
	</clipPath>
	<path clip-path="url(#SVGID_2_)" fill="#00a99d" d="M6.471,2.91C6.471,1.303,5.166,0,3.555,0c-1.61,0-2.917,1.303-2.917,2.91
		c0,0.589,0.177,1.136,0.479,1.594l0.013,0.02c0.002,0.002,0.003,0.005,0.005,0.007l0.82,1.217l0.68,1.007l0.268,0.397l0.651,0.964
		l0.651-0.964l0.567-0.839l0.322-0.479V5.834l0.067-0.1c0.001,0,0.001,0,0.001,0l0.814-1.208C5.98,4.524,5.981,4.521,5.983,4.519
		l0.01-0.016C6.295,4.046,6.471,3.499,6.471,2.91 M3.565,4.257c-0.868,0-1.574-0.705-1.574-1.571c0-0.867,0.706-1.571,1.574-1.571
		c0.867,0,1.573,0.704,1.573,1.571C5.139,3.552,4.433,4.257,3.565,4.257"/>
	<path clip-path="url(#SVGID_2_)" fill="#00a99d" d="M7,10.14c0,0.38-1.567,0.687-3.5,0.687c-1.933,0-3.5-0.307-3.5-0.687
		s1.567-0.687,3.5-0.687C5.433,9.453,7,9.76,7,10.14"/>
</g>
</svg>
