<?xml version="1.0" encoding="utf-8"?>
<!-- Generator: Adobe Illustrator 16.0.0, SVG Export Plug-In . SVG Version: 6.00 Build 0)  -->
<!DOCTYPE svg PUBLIC "-//W3C//DTD SVG 1.1//EN" "http://www.w3.org/Graphics/SVG/1.1/DTD/svg11.dtd">
<svg version="1.1" id="Layer_1" xmlns="http://www.w3.org/2000/svg" xmlns:xlink="http://www.w3.org/1999/xlink" x="0px" y="0px"
	  viewBox="0 0 40.117 35.45" enable-background="new 0 0 40.117 35.45" xml:space="preserve">
<g>
	<defs>
		<rect id="SVGID_1_" y="0" width="40.117" height="35.45"/>
	</defs>
	<clipPath id="SVGID_2_">
		<use xlink:href="#SVGID_1_"  overflow="visible"/>
	</clipPath>
	<path clip-path="url(#SVGID_2_)" fill="#00a99d" d="M35.898,16.022l2.979-1.49c0.332-0.166,0.361-0.485,0.063-0.707l-3.105-2.331
		c-0.297-0.223-0.54-0.101-0.54,0.271v3.884C35.295,16.02,35.567,16.188,35.898,16.022"/>
	<path clip-path="url(#SVGID_2_)" fill="#00a99d" d="M1.24,14.532l2.978,1.49c0.333,0.166,0.604-0.002,0.604-0.373v-3.885
		c0-0.371-0.242-0.493-0.54-0.27l-3.106,2.33C0.879,14.047,0.908,14.366,1.24,14.532"/>
	<path clip-path="url(#SVGID_2_)" fill="#00a99d" d="M33.205,17.37V6.761c0-0.742-0.601-1.343-1.341-1.343H8.253
		c-0.741,0-1.342,0.601-1.342,1.343V17.37l13.147,6.578L33.205,17.37z M15.254,11.8h9.609c0.617,0,1.119,0.501,1.119,1.118
		c0,0.618-0.502,1.118-1.119,1.118h-9.609c-0.618,0-1.118-0.5-1.118-1.118C14.135,12.301,14.636,11.8,15.254,11.8 M14.135,17.725
		c0-0.617,0.501-1.119,1.119-1.119h9.609c0.617,0,1.118,0.502,1.118,1.119c0,0.617-0.501,1.118-1.118,1.118h-9.609
		C14.636,18.842,14.135,18.341,14.135,17.725"/>
	<path clip-path="url(#SVGID_2_)" fill="#00a99d" d="M10.985,21.909L0.604,16.714C0.271,16.548,0,16.716,0,17.088V33.13
		c0,0.372,0.262,0.408,0.525,0.146l10.587-10.587C11.375,22.425,11.317,22.075,10.985,21.909"/>
	<path clip-path="url(#SVGID_2_)" fill="#00a99d" d="M39.514,16.715l-10.382,5.194c-0.333,0.166-0.389,0.518-0.127,0.779
		l10.587,10.587c0.263,0.263,0.525,0.227,0.525-0.146V17.088C40.117,16.716,39.845,16.549,39.514,16.715"/>
	<path clip-path="url(#SVGID_2_)" fill="#00a99d" d="M20.875,0.271c-0.483-0.362-1.149-0.362-1.632,0l-4.01,3.008h9.651
		L20.875,0.271z"/>
	<path clip-path="url(#SVGID_2_)" fill="#00a99d" d="M26.953,23.798c-0.264-0.262-0.804-0.402-1.139-0.241l-5.147,2.482
		c-0.334,0.162-0.882,0.162-1.217,0l-5.148-2.482c-0.335-0.161-0.875-0.021-1.137,0.241L2.107,34.857
		c-0.263,0.263-0.311,0.594,0.06,0.594H37.95c0.372,0,0.322-0.331,0.06-0.594L26.953,23.798z"/>
</g>
</svg>
