<?xml version="1.0" encoding="utf-8"?>
<!-- Generator: Adobe Illustrator 16.0.0, SVG Export Plug-In . SVG Version: 6.00 Build 0)  -->
<!DOCTYPE svg PUBLIC "-//W3C//DTD SVG 1.1//EN" "http://www.w3.org/Graphics/SVG/1.1/DTD/svg11.dtd">
<svg version="1.1" id="Layer_1" xmlns="http://www.w3.org/2000/svg" xmlns:xlink="http://www.w3.org/1999/xlink" x="0px" y="0px"
	 width="33.805px" height="40.117px" viewBox="0 0 33.805 40.117" enable-background="new 0 0 33.805 40.117" xml:space="preserve">
<g>
	<defs>
		<rect id="SVGID_1_" width="33.805" height="40.117"/>
	</defs>
	<clipPath id="SVGID_2_">
		<use xlink:href="#SVGID_1_"  overflow="visible"/>
	</clipPath>
	<path clip-path="url(#SVGID_2_)" fill="#00a99d" d="M12.309,6.938c2.155,0.001,3.906,1.753,3.906,3.907
		c0,0.743,0.604,1.346,1.347,1.346c0.743,0,1.346-0.603,1.346-1.346c0-3.637-2.96-6.597-6.598-6.597
		c-0.742,0-1.345,0.602-1.345,1.345S11.567,6.938,12.309,6.938"/>
	<path clip-path="url(#SVGID_2_)" fill="#00a99d" d="M12.309,2.69c4.497,0,8.155,3.659,8.155,8.155c0,0.743,0.603,1.345,1.346,1.345
		c0.742,0,1.347-0.602,1.347-1.345C23.156,4.866,18.289,0,12.309,0c-0.742,0-1.345,0.602-1.345,1.346
		C10.964,2.087,11.567,2.69,12.309,2.69"/>
	<path clip-path="url(#SVGID_2_)" fill="#00a99d" d="M13.407,26.709c-1.759-1.759-1.957-2.438-2.827-4.11L0.974,12.98
		c-2.833,2.833,0.728,10.987,7.952,18.212c5.54,5.54,11.626,8.925,15.441,8.925c1.159,0,2.109-0.313,2.769-0.974l-9.171-9.161
		C16.291,29.113,15.167,28.468,13.407,26.709"/>
	<path clip-path="url(#SVGID_2_)" fill="#00a99d" d="M11.801,20.854c0.065,0.065,0.14,0.079,0.189,0.079
		c0.052,0,0.125-0.014,0.191-0.079l4.617-4.617c0.066-0.065,0.079-0.139,0.079-0.19c0-0.051-0.013-0.125-0.079-0.19L7.565,6.624
		c-0.051-0.051-0.12-0.079-0.191-0.079c-0.072,0-0.141,0.029-0.189,0.079l-4.618,4.617c-0.106,0.105-0.106,0.275,0,0.38
		L11.801,20.854z"/>
	<path clip-path="url(#SVGID_2_)" fill="#00a99d" d="M33.727,32.786l-9.234-9.233c-0.05-0.051-0.118-0.079-0.189-0.079
		s-0.14,0.027-0.191,0.079l-4.616,4.616c-0.05,0.051-0.078,0.119-0.078,0.19c0,0.072,0.027,0.14,0.078,0.191l9.234,9.232
		c0.102,0.102,0.279,0.102,0.379,0l4.618-4.617C33.831,33.062,33.831,32.892,33.727,32.786"/>
</g>
</svg>
